<svg width="147" height="38" viewBox="0 0 147 38" fill="none" xmlns="http://www.w3.org/2000/svg">
<line y1="22.5" x2="43" y2="22.5" stroke="#F09C4A"/>
<line x1="104" y1="22.5" x2="147" y2="22.5" stroke="#F09C4A"/>
<path d="M86.5 17.4167C86.5 15.8983 85.4233 14.6284 83.9968 14.3228C84.5668 13.3712 84.9167 12.2708 84.9167 11.0833C84.9167 7.5905 82.0762 4.75 78.5833 4.75C76.1814 4.75 74.1168 6.10692 73.0417 8.08133C71.9666 6.10692 69.9019 4.75 67.5 4.75C64.0072 4.75 61.1667 7.5905 61.1667 11.0833C61.1667 12.5115 61.6607 13.8177 62.4603 14.877C62.0606 15.1692 61.7353 15.5514 61.5106 15.9926C61.2859 16.4337 61.1681 16.9216 61.1667 17.4167V30.0833C61.1667 31.8298 62.5869 33.25 64.3333 33.25H83.3333C85.0798 33.25 86.5 31.8298 86.5 30.0833V25.9065L92.8333 29.0732V17.9898L86.5 21.1565V17.4167ZM78.5833 7.91667C80.3298 7.91667 81.75 9.33692 81.75 11.0833C81.75 12.8298 80.3298 14.25 78.5833 14.25C76.8369 14.25 75.4167 12.8298 75.4167 11.0833C75.4167 9.33692 76.8369 7.91667 78.5833 7.91667ZM67.5 7.91667C69.2464 7.91667 70.6667 9.33692 70.6667 11.0833C70.6667 12.8298 69.2464 14.25 67.5 14.25C65.7536 14.25 64.3333 12.8298 64.3333 11.0833C64.3333 9.33692 65.7536 7.91667 67.5 7.91667ZM64.3333 30.0833V17.4167H83.3333L83.3365 30.0833H64.3333Z" fill="#EF953C"/>
</svg>
